<?xml version="1.0" standalone="no"?>
<!DOCTYPE svg PUBLIC "-//W3C//DTD SVG 1.1//EN" "http://www.w3.org/Graphics/SVG/1.1/DTD/svg11.dtd" >
<svg xmlns="http://www.w3.org/2000/svg">
<metadata></metadata>
<defs>
<font id="apex_newmedium" horiz-adv-x="1077" >
<font-face units-per-em="2048" ascent="1536" descent="-512" />
<missing-glyph horiz-adv-x="409" />
<glyph unicode="&#xfb01;" horiz-adv-x="1286" d="M31 829v142l186 53v125q0 108 45.5 189t126.5 129t183.5 71t226.5 23q183 0 323 -31v-201q-149 33 -309 33q-367 0 -367 -215v-123h676v-770q0 -43 18.5 -60.5t67.5 -17.5v-186q-20 -4 -45 -4q-138 0 -204 66.5t-66 199.5v577h-447v-829h-229v829h-186z" />
<glyph unicode="&#xfb02;" horiz-adv-x="1286" d="M31 829v142l186 53v125q0 108 45.5 189t126.5 129t183.5 71t226.5 23q183 0 323 -31v-1276q0 -43 18.5 -60.5t67.5 -17.5v-186q-20 -4 -45 -4q-138 0 -204 66.5t-66 199.5v1108q-25 2 -80 2q-367 0 -367 -215v-123h289v-195h-289v-829h-229v829h-186z" />
<glyph unicode="&#xfb03;" horiz-adv-x="1961" d="M31 829v142l186 53v203q0 166 97 250t300 84q98 0 168 -25v-195q-65 21 -151 21q-84 0 -134.5 -37t-50.5 -119v-182h447v125q0 108 45.5 189t126.5 129t183.5 71t226.5 23q183 0 323 -31v-201q-148 33 -309 33q-367 0 -367 -215v-123h676v-770q0 -43 18.5 -60.5 t67.5 -17.5v-186q-20 -4 -45 -4q-138 0 -204 66.5t-66 199.5v577h-447v-829h-229v829h-447v-829h-229v829h-186z" />
<glyph unicode="&#xfb04;" horiz-adv-x="1961" d="M31 829v142l186 53v203q0 166 97 250t300 84q98 0 168 -25v-195q-65 21 -151 21q-84 0 -134.5 -37t-50.5 -119v-182h447v125q0 108 45.5 189t126.5 129t183.5 71t226.5 23q183 0 323 -31v-1276q0 -43 18.5 -60.5t67.5 -17.5v-186q-20 -4 -45 -4q-138 0 -204 66.5 t-66 199.5v1108q-25 2 -80 2q-367 0 -367 -215v-123h289v-195h-289v-829h-229v829h-447v-829h-229v829h-186z" />
<glyph horiz-adv-x="0" />
<glyph horiz-adv-x="682" />
<glyph unicode=" "  horiz-adv-x="409" />
<glyph unicode="&#x09;" horiz-adv-x="409" />
<glyph unicode="&#xa0;" horiz-adv-x="409" />
<glyph unicode="!" horiz-adv-x="450" d="M76 125q0 61 44 105t105 44q62 0 106 -44t44 -105t-44.5 -105.5t-105.5 -44.5t-105 44t-44 106zM80 1536h291l-68 -1106h-156z" />
<glyph unicode="&#x22;" horiz-adv-x="747" d="M70 1536h270l-61 -512h-148zM408 1536h270l-62 -512h-147z" />
<glyph unicode="#" horiz-adv-x="1331" d="M20 317l58 193h198l78 260h-190l57 193h191l96 317h227l-96 -317h246l96 317h227l-96 -317h199l-58 -193h-198l-78 -260h190l-57 -193h-192l-95 -317h-227l94 317h-246l-94 -317h-227l94 317h-197zM504 510h246l77 260h-245z" />
<glyph unicode="$" horiz-adv-x="1040" d="M96 844q0 161 114 245.5t343 84.5l80 233h194l-92 -250q111 -18 164 -41v-205q-164 60 -364 60q-112 0 -165 -28.5t-53 -94.5q0 -54 49 -75.5t169 -31.5q122 -11 196.5 -29.5t125.5 -54.5t71 -90t20 -139q0 -152 -117.5 -239t-363.5 -87l-80 -231h-194l90 248 q-117 17 -172 45v203q67 -25 169 -43.5t199 -18.5q242 0 242 127q0 61 -48.5 87.5t-166.5 35.5q-236 20 -323 80.5t-87 208.5z" />
<glyph unicode="%" horiz-adv-x="2064" d="M90 909q0 396 371 396q188 0 278 -99t90 -297q0 -196 -90 -295.5t-278 -99.5q-189 0 -280 99t-91 296zM299 909q0 -116 37.5 -162.5t124.5 -46.5q86 0 124 46.5t38 162.5t-38 162.5t-124 46.5q-87 0 -124.5 -46.5t-37.5 -162.5zM473 0l907 1280h211l-905 -1280h-213z M1235 371q0 395 369 395q189 0 279.5 -99t90.5 -296q0 -396 -370 -396q-369 0 -369 396zM1444 371q0 -116 37.5 -162.5t122.5 -46.5q87 0 124 46.5t37 162.5t-37 162.5t-124 46.5q-85 0 -122.5 -46.5t-37.5 -162.5z" />
<glyph unicode="&#x26;" horiz-adv-x="1503" d="M80 426q0 163 67.5 261.5t206.5 174.5q-86 155 -86 318q0 69 20.5 133.5t64 121.5t122 91.5t182.5 34.5t179 -29.5t116.5 -82.5t60.5 -115.5t19 -139.5q0 -63 -21 -117.5t-52 -94t-85.5 -79.5t-101 -66.5t-119.5 -62.5q73 -103 170.5 -205.5t196.5 -173.5q90 112 140 274 t50 355h232q0 -230 -60.5 -421.5t-169.5 -328.5q92 -51 258 -106l-84 -193q-186 56 -329 148q-202 -148 -459 -148q-241 0 -379.5 111t-138.5 340zM313 432q0 -65 24.5 -113.5t66 -76t90 -41t102.5 -13.5q143 0 252 68q-114 72 -219 186t-178 230q-74 -45 -106 -99t-32 -141 zM492 1182q0 -116 61 -232q135 70 172 96q85 61 86 141v5q0 156 -152 156q-86 0 -126.5 -45.5t-40.5 -120.5z" />
<glyph unicode="'" horiz-adv-x="409" d="M70 1536h270l-61 -512h-148z" />
<glyph unicode="(" horiz-adv-x="651" d="M102 625q0 184 24.5 357.5t65 304.5t82 226t84.5 158h232q-43 -64 -85 -158.5t-82.5 -225.5t-65.5 -304.5t-25 -357.5t25 -358t65.5 -305t82.5 -225.5t85 -158.5h-232q-43 63 -84.5 158t-82 226t-65 305t-24.5 358z" />
<glyph unicode=")" horiz-adv-x="651" d="M61 -422q43 64 85 158.5t82.5 225.5t65.5 305t25 358t-25 357.5t-65.5 304.5t-82.5 225.5t-85 158.5h232q43 -63 84.5 -158t82 -226t65 -304.5t24.5 -357.5t-24.5 -358t-65 -305t-82 -226t-84.5 -158h-232z" />
<glyph unicode="*" horiz-adv-x="1024" d="M59 1104l88 270l265 -131l-41 293h282l-43 -293l267 131l88 -270l-291 -51l207 -211l-232 -166l-137 260l-137 -260l-232 166l205 211z" />
<glyph unicode="+" horiz-adv-x="1228" d="M156 588v217h350v350h217v-350h350v-217h-350v-350h-217v350h-350z" />
<glyph unicode="," horiz-adv-x="450" d="M35 -256l57 473h264l-159 -473h-162z" />
<glyph unicode="-" horiz-adv-x="645" d="M61 535v206h523v-206h-523z" />
<glyph unicode="." horiz-adv-x="450" d="M76 125q0 61 44 105t105 44q62 0 106 -44t44 -105t-44.5 -105.5t-105.5 -44.5t-105 44t-44 106z" />
<glyph unicode="/" horiz-adv-x="948" d="M0 -410l707 2048h241l-706 -2048h-242z" />
<glyph unicode="0" horiz-adv-x="1200" d="M102 641q0 355 112 509.5t386 154.5t386 -154.5t112 -509.5t-112 -510.5t-386 -155.5t-386 155.5t-112 510.5zM332 641q0 -250 57.5 -353.5t210.5 -103.5t210.5 103.5t57.5 353.5q0 247 -57.5 351t-210.5 104t-210.5 -104t-57.5 -351z" />
<glyph unicode="1" horiz-adv-x="704" d="M27 1063v137l374 105h111v-1305h-231v1071z" />
<glyph unicode="2" horiz-adv-x="1064" d="M78 0v154q200 155 329.5 271t197 203t92 148.5t24.5 126.5q0 98 -53.5 145.5t-184.5 47.5q-168 0 -333 -68v215q61 26 160 44t192 18q112 0 196 -22.5t132.5 -58t77.5 -87.5t38.5 -102t9.5 -111q0 -74 -20.5 -138.5t-57.5 -124t-110.5 -132t-158.5 -143t-222 -175.5 l590 2v-213h-899z" />
<glyph unicode="3" horiz-adv-x="1196" d="M98 8q178 -76 406 -76q356 0 356 263q0 131 -73 185t-230 54h-287v209h291q122 0 186 59.5t64 159.5q0 116 -77 174t-249 58q-201 0 -385 -78v219q63 31 177.5 50.5t232.5 19.5q279 0 410 -110t131 -310q0 -114 -55 -201.5t-144 -130.5q110 -28 179 -124t69 -234 q0 -108 -33 -193.5t-102 -149.5t-183.5 -98.5t-269.5 -34.5q-119 0 -231.5 19t-182.5 51v219z" />
<glyph unicode="4" horiz-adv-x="1226" d="M68 119v151l727 1035h178v-971h190v-215h-190v-375h-225v375h-680zM342 330l406 4l4 588z" />
<glyph unicode="5" horiz-adv-x="1196" d="M113 -6q166 -66 379 -66q56 0 102 6t93.5 25t79.5 50t52.5 84.5t20.5 125.5q0 48 -9.5 85.5t-24 62t-40 42t-48.5 27t-59 14.5t-62.5 6t-66.5 1h-366v823h883v-213h-656v-405q49 6 176 6q89 0 155 -8t136.5 -35.5t115 -75t73 -131t28.5 -199.5q0 -93 -19 -168t-50 -126.5 t-78 -89.5t-95 -60t-108 -35t-111 -17t-110 -4q-117 0 -222.5 19t-168.5 49v207z" />
<glyph unicode="6" horiz-adv-x="1212" d="M109 682q0 166 14.5 292t53.5 240.5t104.5 188t170.5 116t248 42.5q126 0 221 -22t148 -50v-215q-145 74 -350 74q-91 0 -159.5 -26t-111.5 -71.5t-70.5 -116t-38.5 -149.5t-13 -182q48 75 137.5 120.5t206.5 45.5q83 0 150 -16.5t113 -44t80.5 -68t54.5 -82.5t32 -94 t16 -96.5t4 -96.5q0 -496 -489 -496q-92 0 -165.5 16t-128 45.5t-94.5 76.5t-65.5 103t-41 131.5t-21.5 154.5t-6 180zM344 471q0 -291 281 -291q77 0 131.5 24.5t82.5 68t40 91.5t12 107q0 293 -254 293q-293 0 -293 -293z" />
<glyph unicode="7" horiz-adv-x="1107" d="M51 1069v211h1002v-147l-611 -1389h-272l659 1329z" />
<glyph unicode="8" horiz-adv-x="1196" d="M68 438q0 129 66.5 233t168.5 138q-83 41 -134.5 126t-51.5 195q0 198 117 314.5t364 116.5t364 -116.5t117 -314.5q0 -110 -51.5 -195t-134.5 -126q102 -34 168.5 -138t66.5 -233q0 -214 -134 -338.5t-396 -124.5t-396 124.5t-134 338.5zM295 440q0 -50 14.5 -94 t47 -83.5t94.5 -63t147 -23.5t147 23.5t94.5 63t47 83.5t14.5 94q0 260 -303 260t-303 -260zM350 1120q0 -98 62.5 -163.5t185.5 -65.5t185.5 65.5t62.5 163.5q0 103 -61 171.5t-187 68.5t-187 -68.5t-61 -171.5z" />
<glyph unicode="9" horiz-adv-x="1212" d="M102 809q0 496 490 496q93 0 166.5 -16t128 -45.5t94 -76.5t65 -103t41 -131.5t21.5 -154.5t6 -180q0 -166 -14.5 -292t-54 -240.5t-104.5 -188t-170.5 -116t-248.5 -42.5q-127 0 -227 22.5t-152 49.5v215q148 -74 361 -74q91 0 159.5 26t111.5 71.5t70 116t38 149.5 t12 182q-46 -75 -135.5 -120.5t-206.5 -45.5q-83 0 -150 16.5t-113 44t-81 67.5t-55 82.5t-32 94.5t-16 96.5t-4 96.5zM332 809q0 -293 254 -293q293 0 293 293q0 291 -281 291q-77 0 -131.5 -24.5t-82.5 -68t-40 -91.5t-12 -107z" />
<glyph unicode=":" horiz-adv-x="444" d="M76 125q0 61 44 105t105 44q62 0 106 -44t44 -105t-44.5 -105.5t-105.5 -44.5t-105 44t-44 106zM76 768q0 62 44 106t105 44t105.5 -44t44.5 -106t-44.5 -106t-105.5 -44t-105 44t-44 106z" />
<glyph unicode=";" horiz-adv-x="450" d="M35 -256l57 473h264l-159 -473h-162zM76 768q0 62 44 106t105 44t105.5 -44t44.5 -106t-44.5 -106t-105.5 -44t-105 44t-44 106z" />
<glyph unicode="&#x3c;" horiz-adv-x="1228" d="M156 604v189l917 452v-235l-651 -312l651 -311v-235z" />
<glyph unicode="=" horiz-adv-x="1228" d="M156 408v217h917v-217h-917zM156 768v217h917v-217h-917z" />
<glyph unicode="&#x3e;" horiz-adv-x="1228" d="M156 152v235l651 311l-651 312v235l917 -452v-189z" />
<glyph unicode="?" horiz-adv-x="972" d="M47 1290v219q52 21 148.5 36.5t193.5 15.5q127 0 221 -23t150.5 -61t90.5 -95t46 -116t12 -133q0 -56 -11 -104.5t-28 -84t-47 -67t-57.5 -52.5t-71 -42.5t-75.5 -34.5t-82 -31q-31 -11 -53.5 -25t-36.5 -35t-21.5 -37t-11 -49t-4 -52.5t-0.5 -64.5v-24h-144 q-28 98 -28 168q0 55 12.5 97.5t52 84.5t105.5 70q12 5 34 14q38 15 56.5 23t49 23.5t45 27.5t34.5 32t29 41t15.5 50.5t6.5 64.5q0 73 -25 118t-93.5 72t-186.5 27q-87 0 -179.5 -15.5t-146.5 -37.5zM217 125q0 61 44 105t106 44q61 0 105 -44t44 -105q0 -62 -44 -106 t-105 -44t-105.5 44.5t-44.5 105.5z" />
<glyph unicode="@" horiz-adv-x="1970" d="M131 512q0 400 220.5 600.5t643.5 200.5q418 0 631 -171t213 -509q0 -76 -11.5 -145.5t-43.5 -141.5t-81.5 -124.5t-132 -86t-188.5 -33.5h-127l-36 82q-53 -47 -137 -77.5t-171 -30.5q-172 0 -280.5 111.5t-108.5 324.5t108.5 324.5t280.5 111.5q87 0 171 -30.5 t137 -77.5l36 82h136v-666q66 0 115.5 20.5t80 54.5t49 85t25 104t6.5 119q0 272 -161 394t-511 122q-352 0 -520 -154t-168 -489q0 -336 167.5 -489.5t520.5 -153.5q150 0 321 26t265 66v-164q-101 -37 -269 -61.5t-317 -24.5q-423 0 -643.5 200.5t-220.5 600.5zM752 512 q0 -126 49.5 -183t150.5 -57q109 0 209 56v368q-100 56 -209 56q-101 0 -150.5 -57t-49.5 -183z" />
<glyph unicode="A" horiz-adv-x="1310" d="M51 0l488 1554h233l488 -1554h-250l-109 375h-491l-109 -375h-250zM459 563h393l-197 680z" />
<glyph unicode="B" horiz-adv-x="1245" d="M125 0v1536h516q136 0 233.5 -31.5t151.5 -90t78 -131.5t24 -167q0 -100 -48.5 -182t-135.5 -123q109 -32 170.5 -129t61.5 -231q0 -451 -523 -451h-528zM354 211h308q268 0 268 246q0 122 -62 182.5t-204 60.5h-310v-489zM354 895h301q66 0 113 18.5t70.5 51t34 67 t10.5 74.5q0 43 -9 78t-33 69t-73 53t-121 19h-293v-430z" />
<glyph unicode="C" horiz-adv-x="1202" d="M104 768q0 193 35.5 337.5t110.5 247.5t196.5 155.5t290.5 52.5q203 0 361 -66v-219q-93 37 -169.5 53.5t-176.5 16.5q-216 0 -314 -144t-98 -434t98 -434t314 -144q100 0 176.5 16.5t169.5 53.5v-219q-158 -66 -361 -66q-169 0 -290.5 52.5t-196.5 155.5t-110.5 247.5 t-35.5 337.5z" />
<glyph unicode="D" horiz-adv-x="1331" d="M125 0v1536h457q149 0 263 -38.5t187 -105.5t118.5 -166t64 -210t18.5 -248t-18.5 -248t-64 -210t-118.5 -166t-187 -105.5t-263 -38.5h-457zM354 211h234q113 0 192.5 39t125.5 115t66.5 174.5t20.5 228.5t-20.5 228.5t-66.5 174.5t-125.5 115t-192.5 39h-234v-1114z " />
<glyph unicode="E" horiz-adv-x="1157" d="M125 0v1536h934v-211h-705v-424h639v-211h-639v-479h705v-211h-934z" />
<glyph unicode="F" horiz-adv-x="1114" d="M125 0v1536h917v-211h-688v-432h623v-211h-623v-682h-229z" />
<glyph unicode="G" horiz-adv-x="1333" d="M104 768q0 186 34 328.5t107.5 248.5t196.5 161t293 55q277 0 441 -80v-226q-221 91 -412 91q-116 0 -198.5 -38.5t-132 -114.5t-71.5 -180t-22 -245q0 -292 98.5 -435t325.5 -143q137 0 219 29v420h-272v207h501v-776q-69 -37 -200.5 -66t-282.5 -29q-135 0 -240.5 36.5 t-177.5 103t-118.5 166t-67.5 219.5t-21 268z" />
<glyph unicode="H" horiz-adv-x="1331" d="M125 0v1536h229v-635h623v635h229v-1536h-229v690h-623v-690h-229z" />
<glyph unicode="I" horiz-adv-x="544" d="M158 0v1536h229v-1536h-229z" />
<glyph unicode="J" horiz-adv-x="765" d="M45 0v219q82 -24 160 -24q188 0 188 157v1184h230v-1219q0 -170 -98.5 -256t-307.5 -86q-95 0 -172 25z" />
<glyph unicode="K" horiz-adv-x="1275" d="M125 0v1536h229l-2 -713l553 713h283l-565 -680l616 -856h-291l-473 676l-123 -148l2 -528h-229z" />
<glyph unicode="L" horiz-adv-x="1073" d="M125 0v1536h229v-1325h668v-211h-897z" />
<glyph unicode="M" horiz-adv-x="1671" d="M125 0v1536h295l416 -1047l415 1047h295v-1536h-229l10 1155l-383 -944h-217l-383 944l10 -1155h-229z" />
<glyph unicode="N" horiz-adv-x="1347" d="M125 0v1536h209l667 -1092l-6 1092h228v-1536h-209l-668 1092l6 -1092h-227z" />
<glyph unicode="O" horiz-adv-x="1392" d="M104 768q0 99 6.5 181t24.5 165.5t46.5 148.5t74.5 122t106.5 95t145 59.5t188.5 21.5t188.5 -21.5t145 -59.5t106.5 -95t74.5 -122t46.5 -148.5t24.5 -165.5t6.5 -181t-6.5 -181t-24.5 -165.5t-46.5 -148.5t-74.5 -122t-106.5 -95t-145 -59.5t-188.5 -21.5t-188.5 21.5 t-145 59.5t-106.5 95t-74.5 122t-46.5 148.5t-24.5 165.5t-6.5 181zM340 768q0 -116 9 -201.5t32.5 -161t63.5 -122t102.5 -73t148.5 -26.5t149 26.5t102.5 73.5t63.5 121.5t33 160.5t9 202t-9 202t-33 160.5t-63.5 121.5t-102.5 73.5t-149 26.5t-148.5 -26.5t-102.5 -73 t-63.5 -122t-32.5 -161t-9 -201.5z" />
<glyph unicode="P" horiz-adv-x="1187" d="M125 0v1536h493q115 0 206.5 -26t152 -70.5t100.5 -106.5t57 -131t17 -147q0 -99 -28.5 -182t-89 -151.5t-166.5 -107.5t-249 -39h-264v-575h-229zM354 784h275q66 0 116 17.5t79 44.5t47 64.5t24 72t6 72.5q0 49 -11 91.5t-38.5 85.5t-84.5 68t-138 25h-275v-541z" />
<glyph unicode="Q" horiz-adv-x="1392" d="M104 768q0 102 7 187t25 168t47 147.5t75 120.5t107 92.5t144.5 57t186.5 20.5q144 0 250 -40t171 -107.5t104 -172t53 -216t14 -257.5q0 -113 -7.5 -200.5t-28 -176t-56 -152.5t-93.5 -115.5t-138 -80.5v-2l479 -98v-234l-957 291q-93 28 -161.5 81.5t-110.5 122 t-67.5 161.5t-34.5 188t-9 215zM340 768q0 -116 9 -201.5t32.5 -161t63.5 -122t102.5 -73t148.5 -26.5t149 26.5t102.5 73.5t63.5 121.5t33 160.5t9 202t-9 202t-33 160.5t-63.5 121.5t-102.5 73.5t-149 26.5t-148.5 -26.5t-102.5 -73t-63.5 -122t-32.5 -161t-9 -201.5z" />
<glyph unicode="R" horiz-adv-x="1271" d="M125 0v1536h500q146 0 249 -31.5t162.5 -93t86 -142.5t26.5 -190q0 -158 -57.5 -260t-192.5 -149l322 -670h-269l-278 625h-320v-625h-229zM354 834h303q62 0 107 14t70.5 35.5t40.5 55.5t19.5 66t4.5 74q0 43 -4.5 75t-19.5 66t-40.5 55.5t-70.5 35.5t-107 14h-303v-491 z" />
<glyph unicode="S" horiz-adv-x="1218" d="M92 63v230q61 -27 107.5 -44t141.5 -36.5t191 -19.5q359 0 359 258q0 123 -58.5 169.5t-220.5 67.5q-287 36 -403.5 128.5t-116.5 299.5q0 71 16 133t55.5 120.5t100.5 100t156.5 66.5t216.5 25q268 0 416 -74v-223q-182 79 -404 79q-321 0 -321 -229q0 -61 16.5 -100 t57.5 -63t89 -35.5t134 -22.5q104 -14 176 -31t138.5 -48t105.5 -75.5t62 -113t23 -160.5q0 -229 -143 -359.5t-440 -130.5q-118 0 -248.5 24.5t-206.5 63.5z" />
<glyph unicode="T" horiz-adv-x="1138" d="M55 1325v211h1028v-211h-399v-1325h-229v1325h-400z" />
<glyph unicode="U" horiz-adv-x="1343" d="M115 483v1053h229v-1032q0 -320 328 -320q327 0 327 320v1032h230v-1053q0 -89 -20 -163.5t-53.5 -125.5t-80.5 -91t-96 -63.5t-105.5 -38.5t-104.5 -20.5t-97 -5.5t-97 5.5t-104.5 20.5t-105.5 38.5t-96 63.5t-80.5 91t-53.5 125.5t-20 163.5z" />
<glyph unicode="V" horiz-adv-x="1310" d="M51 1536h250l354 -1249l355 1249h250l-488 -1554h-233z" />
<glyph unicode="W" horiz-adv-x="1810" d="M57 1536h244l201 -1210l260 1210h287l260 -1210l200 1210h244l-289 -1554h-280l-279 1280l-278 -1280h-281z" />
<glyph unicode="X" horiz-adv-x="1337" d="M29 0l465 786l-447 750h272l332 -612l332 612h272l-446 -750l465 -786h-279l-344 618l-344 -618h-278z" />
<glyph unicode="Y" horiz-adv-x="1372" d="M47 1536h260l379 -717l379 717h260l-522 -920v-616h-234v616z" />
<glyph unicode="Z" horiz-adv-x="1249" d="M61 0v154l787 1165l-735 -4v221h1044v-154l-786 -1165l817 4v-221h-1127z" />
<glyph unicode="[" horiz-adv-x="548" d="M133 -422v2093h354v-213h-131v-1667h131v-213h-354z" />
<glyph unicode="\" horiz-adv-x="948" d="M0 1638h242l706 -2048h-241z" />
<glyph unicode="]" horiz-adv-x="548" d="M61 -209h132v1667h-132v213h355v-2093h-355v213z" />
<glyph unicode="^" horiz-adv-x="1159" d="M33 768l452 793h189l452 -793h-235l-311 547l-312 -547h-235z" />
<glyph unicode="_" horiz-adv-x="602" d="M0 -195h602v-186h-602v186z" />
<glyph unicode="`" d="M240 1536h276l119 -410h-193z" />
<glyph unicode="a" horiz-adv-x="1015" d="M76 303q0 305 375 334l229 18v52q0 79 -44.5 112t-156.5 33q-166 0 -319 -61v198q61 27 153.5 43.5t182.5 16.5q99 0 172 -17.5t119 -48t73.5 -78t38 -100t10.5 -121.5v-684h-135l-37 82q-61 -51 -142.5 -79t-166.5 -28q-95 0 -165.5 27.5t-110 75.5t-58 104t-18.5 121z M303 315q0 -151 158 -151q116 0 219 67v267l-215 -25q-81 -10 -121.5 -46t-40.5 -112z" />
<glyph unicode="b" horiz-adv-x="1110" d="M113 0v1536h229v-567q126 80 274 80q216 0 313 -137.5t97 -399.5q0 -263 -96.5 -400t-313.5 -137q-185 0 -331 107l-37 -82h-135zM342 229q105 -59 221 -59q59 0 101.5 18t67.5 47t39.5 75t19 92.5t4.5 109.5q0 62 -4.5 108.5t-19 92.5t-39.5 75.5t-67.5 47.5t-101.5 18 q-116 0 -221 -59v-566z" />
<glyph unicode="c" horiz-adv-x="921" d="M84 512q0 99 14.5 178.5t48 148t87.5 114t135 71t188 25.5q164 0 283 -52v-198q-120 47 -269 47q-73 0 -124 -23.5t-79 -69.5t-40.5 -104.5t-12.5 -136.5t12.5 -136.5t40.5 -104.5t79 -69.5t124 -23.5q149 0 269 47v-198q-119 -52 -283 -52q-107 0 -188 25.5t-135 71 t-87.5 114t-48 148t-14.5 178.5z" />
<glyph unicode="d" horiz-adv-x="1110" d="M84 512q0 262 97 399.5t313 137.5q148 0 274 -80v567h229v-1536h-135l-37 82q-146 -107 -331 -107q-217 0 -313.5 137t-96.5 400zM315 512q0 -63 4.5 -109.5t19 -92.5t39.5 -75t67.5 -47t101.5 -18q116 0 221 59v566q-105 59 -221 59q-59 0 -101.5 -18t-67.5 -47.5 t-39.5 -75.5t-19 -92.5t-4.5 -108.5z" />
<glyph unicode="e" horiz-adv-x="1044" d="M84 512q0 127 24.5 223.5t77.5 168t141.5 108.5t211.5 37q105 0 181.5 -28t121 -73t71 -115.5t35 -141t8.5 -163.5q0 -34 -4 -100h-637q3 -126 62 -190t207 -64q182 0 325 62v-197q-153 -64 -360 -64q-247 0 -356 138t-109 399zM315 588h410q0 51 -2 82t-12 69.5 t-29.5 59.5t-55 36t-87.5 15q-118 0 -167.5 -67.5t-56.5 -194.5z" />
<glyph unicode="f" horiz-adv-x="782" d="M31 829v142l186 53v203q0 166 97 250t300 84q98 0 168 -25v-195q-65 21 -151 21q-84 0 -134.5 -37t-50.5 -119v-182h289v-195h-289v-829h-229v829h-186z" />
<glyph unicode="g" horiz-adv-x="1073" d="M12 -238q0 97 61 161.5t152 92.5v2q-37 21 -58.5 60.5t-21.5 81.5q0 93 93 166q-164 93 -164 333q0 390 428 390q105 0 188 -25h354v-145l-145 -41q31 -82 31 -179q0 -389 -428 -389q-66 0 -119 9q-29 -29 -29 -60q0 -50 62 -59l370 -45q149 -18 212 -87t63 -200 q0 -95 -47.5 -167.5t-130 -114.5t-182.5 -62.5t-216 -20.5q-105 0 -190 17.5t-149 52.5t-99 93.5t-35 135.5zM231 -195q0 -85 64 -122t207 -37q146 0 242 44.5t96 131.5q0 52 -27.5 77t-91.5 33l-291 37q-87 -15 -143 -55.5t-56 -108.5zM291 659q0 -98 45.5 -152t165.5 -54 t165.5 54t45.5 152q0 99 -45.5 153t-165.5 54t-165.5 -54t-45.5 -153z" />
<glyph unicode="h" horiz-adv-x="1073" d="M113 0v1536h229v-563q129 76 274 76q187 0 270 -85t83 -241v-723h-230v702q0 78 -39.5 115t-121.5 37q-131 0 -236 -59v-795h-229z" />
<glyph unicode="i" horiz-adv-x="526" d="M98 1327q0 61 44 105.5t106 44.5q61 0 105 -44t44 -106q0 -61 -43.5 -105t-105.5 -44t-106 44t-44 105zM133 252v772h229v-770q0 -43 19 -60.5t68 -17.5v-186q-21 -4 -46 -4q-138 0 -204 66.5t-66 199.5z" />
<glyph unicode="j" horiz-adv-x="495" d="M-104 -324q109 0 173 55t64 150v1143h229v-1188q0 -91 -40.5 -164t-107.5 -117.5t-149 -68t-169 -23.5v213zM98 1327q0 61 44 105.5t106 44.5q61 0 105 -44t44 -106q0 -61 -43.5 -105t-105.5 -44t-106 44t-44 105z" />
<glyph unicode="k" horiz-adv-x="1069" d="M113 0v1536h229v-909l363 397h296l-415 -422l458 -602h-284l-320 455l-98 -101v-354h-229z" />
<glyph unicode="l" horiz-adv-x="526" d="M133 252v1284h229v-1282q0 -43 19 -60.5t68 -17.5v-186q-21 -4 -46 -4q-138 0 -204 66.5t-66 199.5z" />
<glyph unicode="m" horiz-adv-x="1626" d="M113 0v1024h135l37 -82q63 50 147.5 78.5t161.5 28.5q192 0 262 -103q68 49 155 76t173 27q174 0 256 -86t82 -240v-723h-230v723q0 131 -145 131q-120 0 -221 -63q6 -55 6 -113v-678h-230v723q0 70 -36.5 100.5t-108.5 30.5q-114 0 -215 -59v-795h-229z" />
<glyph unicode="n" horiz-adv-x="1073" d="M113 0v1024h135l37 -82q155 107 331 107q187 0 270 -85t83 -241v-723h-230v702q0 78 -39.5 115t-121.5 37q-131 0 -236 -59v-795h-229z" />
<glyph unicode="o" d="M84 512q0 100 12 177.5t43 147t82 115t131 71.5t187 26t187 -26t130.5 -71.5t81.5 -115t43 -147t12 -177.5t-12 -177.5t-43 -147t-81.5 -115t-130.5 -71.5t-187 -26t-187 26t-131 71.5t-82 115t-43 147t-12 177.5zM315 512q0 -72 4.5 -121t18 -94t38 -71.5t65 -42 t98.5 -15.5t98 15.5t64.5 42t38 72t18 94t4.5 120.5t-4.5 120.5t-18 94t-38 72t-64.5 42t-98 15.5t-98.5 -15.5t-65 -42t-38 -71.5t-18 -94t-4.5 -121z" />
<glyph unicode="p" horiz-adv-x="1110" d="M113 -512v1536h135l37 -82q146 107 331 107q217 0 313.5 -137t96.5 -400q0 -262 -97 -399.5t-313 -137.5q-148 0 -274 80v-567h-229zM342 229q105 -59 221 -59q59 0 101.5 18t67.5 47.5t39.5 75.5t19 92.5t4.5 108.5q0 63 -4.5 109.5t-19 92.5t-39.5 75t-67.5 47 t-101.5 18q-116 0 -221 -59v-566z" />
<glyph unicode="q" horiz-adv-x="1110" d="M84 512q0 263 96.5 400t313.5 137q185 0 331 -107l37 82h135v-1536h-229v567q-126 -80 -274 -80q-216 0 -313 137.5t-97 399.5zM315 512q0 -62 4.5 -108.5t19 -92.5t39.5 -75.5t67.5 -47.5t101.5 -18q116 0 221 59v566q-105 59 -221 59q-59 0 -101.5 -18t-67.5 -47 t-39.5 -75t-19 -92.5t-4.5 -109.5z" />
<glyph unicode="r" horiz-adv-x="749" d="M113 0v1024h135l37 -82q133 107 323 107q46 0 109 -13v-196q-37 12 -113 12q-168 0 -262 -61v-791h-229z" />
<glyph unicode="s" horiz-adv-x="952" d="M86 723q0 68 23.5 125.5t71 103t130 71.5t191.5 26q198 0 317 -52v-198q-152 57 -313 57q-197 0 -197 -127q0 -55 36 -80.5t134 -34.5q152 -13 237 -51t117.5 -98.5t32.5 -159.5q0 -69 -22.5 -126t-71.5 -104t-136 -73.5t-206 -26.5q-203 0 -338 56v196q155 -57 305 -57 q125 0 184.5 30t59.5 97q0 60 -35.5 89t-134.5 38q-115 10 -190.5 33t-118 61.5t-59.5 87t-17 117.5z" />
<glyph unicode="t" horiz-adv-x="778" d="M27 829v142l186 53v244l229 65v-309h289v-195h-289v-507q0 -77 40.5 -114.5t127.5 -37.5q40 0 90 8v-188q-66 -15 -127 -15q-174 0 -267 79t-93 241v534h-186z" />
<glyph unicode="u" horiz-adv-x="1073" d="M104 301v723h230v-702q0 -78 40 -115t122 -37q130 0 235 59v795h230v-1024h-136l-37 82q-155 -107 -331 -107q-187 0 -270 85t-83 241z" />
<glyph unicode="v" horiz-adv-x="1024" d="M27 1024h247l238 -741l238 741h247l-391 -1042h-188z" />
<glyph unicode="w" horiz-adv-x="1425" d="M37 1024h233l140 -705l198 705h209l199 -705l139 705h234l-269 -1042h-194l-213 772l-213 -772h-195z" />
<glyph unicode="x" horiz-adv-x="1044" d="M31 0l348 526l-326 498h260l209 -356l209 356h260l-325 -498l348 -526h-264l-228 379l-227 -379h-264z" />
<glyph unicode="y" horiz-adv-x="1024" d="M27 1024h254l231 -731l231 731h254l-585 -1536h-256l254 547z" />
<glyph unicode="z" horiz-adv-x="899" d="M35 0v162l520 661l-483 -2v203h778v-162l-520 -661l542 2v-203h-837z" />
<glyph unicode="{" horiz-adv-x="507" d="M37 518v213h24q44 0 64 20t18 60l-37 637q-6 113 61 168t181 55h98v-213h-30q-46 0 -67 -20.5t-19 -59.5l37 -598q6 -98 -70 -155q35 -26 54 -68t16 -88l-37 -598q-2 -39 19 -59.5t67 -20.5h30v-213h-98q-114 0 -181 55t-61 168l37 637q3 77 -75 80h-31z" />
<glyph unicode="|" horiz-adv-x="544" d="M158 -410v2048h229v-2048h-229z" />
<glyph unicode="}" horiz-adv-x="507" d="M61 -209h31q46 0 67 20.5t19 59.5l-37 598q-2 47 18.5 91t55.5 65q-35 22 -55.5 64.5t-18.5 90.5l37 598q2 39 -19 59.5t-67 20.5h-31v213h101q114 0 179.5 -55t59.5 -168l-36 -637q-2 -40 17.5 -60t63.5 -20h25v-213h-31q-78 -3 -75 -80l36 -637q6 -113 -59.5 -168 t-179.5 -55h-101v213z" />
<glyph unicode="~" horiz-adv-x="1003" d="M92 584v221q29 28 85 48.5t122 20.5q70 0 128 -23.5t91 -51t81 -51t101 -23.5q69 0 126.5 26.5t84.5 55.5v-221q-30 -28 -85.5 -49t-120.5 -21q-70 0 -128 23.5t-91.5 51.5t-81.5 51.5t-101 23.5q-69 0 -126.5 -26.5t-84.5 -55.5z" />
<glyph unicode="&#xa1;" horiz-adv-x="450" d="M76 899q0 62 44 106t105 44t105.5 -44.5t44.5 -105.5t-44 -105t-106 -44q-61 0 -105 44t-44 105zM80 -512l67 1106h156l68 -1106h-291z" />
<glyph unicode="&#xa2;" horiz-adv-x="1032" d="M96 639q0 259 124 396.5t370 140.5l80 231h194l-92 -246q93 -16 158 -43v-203q-151 54 -299 54q-159 0 -232 -83.5t-73 -246.5t73 -246.5t232 -83.5q151 0 299 53v-202q-136 -58 -332 -58h-41l-80 -231h-194l96 266q-283 104 -283 502z" />
<glyph unicode="&#xa3;" horiz-adv-x="1112" d="M47 0v207h141v352h-141v184h141v162q0 71 14 129t48 109.5t87.5 86.5t135.5 55t189 20q99 0 199 -16.5t163 -45.5v-203q-174 56 -344 56q-133 0 -197.5 -50.5t-64.5 -158.5v-144h489v-184h-489v-352h647v-207h-1018z" />
<glyph unicode="&#xa4;" horiz-adv-x="1466" d="M78 150l180 194q-96 132 -96 356q0 225 96 357l-180 194l168 160l186 -201q126 60 301 60t301 -60l187 201l168 -160l-181 -194q97 -134 97 -357q0 -222 -97 -356l181 -194l-168 -160l-187 200q-123 -59 -301 -59t-301 59l-186 -200zM410 700q0 -102 22.5 -171.5 t67.5 -107.5t100.5 -53.5t132.5 -15.5t133 15.5t101 53.5t67.5 107.5t22.5 171.5q0 82 -15.5 143.5t-42.5 100t-69 62.5t-89 33.5t-108 9.5q-77 0 -132.5 -15.5t-100.5 -53.5t-67.5 -108t-22.5 -172z" />
<glyph unicode="&#xa5;" horiz-adv-x="1228" d="M39 1280h272l303 -598l304 598h272l-246 -422h205v-164h-299l-64 -108h363v-164h-420v-422h-229v422h-420v164h360l-61 108h-299v164h203z" />
<glyph unicode="&#xa6;" horiz-adv-x="544" d="M158 -410v973h229v-973h-229zM158 666v972h229v-972h-229z" />
<glyph unicode="&#xa7;" horiz-adv-x="1347" d="M92 541q0 100 47 195.5t146 158.5q-60 80 -60 223q0 51 9.5 98.5t31 99.5t62 94.5t98 77t145 54t195.5 19.5q256 0 428 -76l-2 -232q-112 50 -212 67t-218 17q-88 0 -148 -17t-91 -50t-43.5 -70.5t-12.5 -87.5q0 -44 13.5 -76t35.5 -53t63 -37t83 -25.5t108 -19.5 q195 -30 299 -78.5t145 -126.5t41 -213q0 -101 -47 -196t-147 -158q61 -85 61 -223q0 -51 -9.5 -98.5t-31 -99.5t-62.5 -94.5t-98.5 -77t-144 -54t-194.5 -19.5q-259 0 -428 76l2 234q117 -49 217 -67.5t213 -18.5q88 0 148 17t91 50t43.5 70.5t12.5 87.5q0 44 -13.5 76 t-35.5 53t-63 37t-83 25.5t-108 19.5q-196 30 -299.5 78.5t-145 127t-41.5 212.5zM332 539q0 -37 7 -65t25 -48.5t37.5 -34t55.5 -25t67.5 -18t85.5 -16.5q176 -30 260 -66q75 32 110.5 90t35.5 129q0 44 -12.5 76t-31.5 52t-58.5 35.5t-75.5 23.5t-101 20q-168 25 -262 66 q-74 -32 -108.5 -90t-34.5 -129z" />
<glyph unicode="&#xa8;" d="M172 1327q0 61 44 105.5t106 44.5q61 0 105 -44t44 -106q0 -61 -43.5 -105t-105.5 -44t-106 44t-44 105zM606 1327q0 61 44 105.5t106 44.5q61 0 105 -44t44 -106q0 -61 -43.5 -105t-105.5 -44t-106 44t-44 105z" />
<glyph unicode="&#xa9;" horiz-adv-x="1622" d="M125 639q0 177 54 308.5t150 208t216 113t264 36.5q116 0 216 -22t188 -72.5t150 -126.5t98 -189.5t36 -255.5t-36 -255t-98 -188.5t-150 -126t-188 -72.5t-216 -22q-115 0 -214 22t-186.5 72.5t-149.5 126t-98 188.5t-36 255zM287 639q0 -108 27.5 -194.5t75 -144.5 t114.5 -96.5t144 -55.5t165 -17q87 0 163 17t143 56t114 96.5t74.5 144t27.5 194.5t-27.5 195t-74.5 145t-114 97t-143 56t-163 17q-88 0 -165 -17t-144 -56t-114.5 -97t-75 -145t-27.5 -195zM455 639q0 191 98 283t272 92q144 0 230 -35v-166q-89 29 -207 29 q-93 0 -144 -49.5t-51 -153.5t51 -153.5t144 -49.5q118 0 207 29v-166q-86 -35 -230 -35q-174 0 -272 92t-98 283z" />
<glyph unicode="&#xaa;" horiz-adv-x="792" d="M55 997q0 230 291 248l164 10v31q0 55 -29 81t-104 26q-127 0 -260 -50v168q123 50 282 50q92 0 154.5 -19t95.5 -57.5t46.5 -85.5t13.5 -113v-516h-146l-18 45q-106 -70 -221 -70q-269 0 -269 252zM244 1008q0 -47 29 -76t89 -29q78 0 148 41v184l-145 -12 q-57 -6 -89 -34t-32 -74z" />
<glyph unicode="&#xab;" horiz-adv-x="980" d="M96 432v160l389 299v-207l-192 -172l192 -172v-207zM485 432v160l389 299v-207l-192 -172l192 -172v-207z" />
<glyph unicode="&#xac;" horiz-adv-x="1249" d="M156 805v217h917v-651h-217v434h-700z" />
<glyph unicode="&#xad;" horiz-adv-x="645" d="M61 535v206h523v-206h-523z" />
<glyph unicode="&#xae;" horiz-adv-x="1622" d="M125 639q0 177 54 308.5t150 208t216 113t264 36.5q116 0 216 -22t188 -72.5t150 -126.5t98 -189.5t36 -255.5t-36 -255t-98 -188.5t-150 -126t-188 -72.5t-216 -22q-115 0 -214 22t-186.5 72.5t-149.5 126t-98 188.5t-36 255zM287 639q0 -108 27.5 -194.5t75 -144.5 t114.5 -96.5t144 -55.5t165 -17q87 0 163 17t143 56t114 96.5t74.5 144t27.5 194.5t-27.5 195t-74.5 145t-114 97t-143 56t-163 17q-88 0 -165 -17t-144 -56t-114.5 -97t-75 -145t-27.5 -195zM510 291v700h330q132 0 191 -64.5t59 -172.5q0 -146 -101 -203l150 -260h-213 l-111 225h-119v-225h-186zM696 672h140q67 0 67 76q0 35 -17 55t-50 20h-140v-151z" />
<glyph unicode="&#xaf;" d="M240 1239v182h598v-182h-598z" />
<glyph unicode="&#xb0;" horiz-adv-x="774" d="M76 1264q0 153 83.5 225t227.5 72q146 0 228.5 -72t82.5 -225t-82.5 -225t-228.5 -72q-144 0 -227.5 72t-83.5 225zM264 1264q0 -121 123 -121t123 121q0 120 -123 120t-123 -120z" />
<glyph unicode="&#xb1;" horiz-adv-x="1228" d="M156 82v217h917v-217h-917zM156 729v217h350v350h217v-350h350v-217h-350v-350h-217v350h-350z" />
<glyph unicode="&#xb2;" horiz-adv-x="874" d="M76 698v148q196 124 294 198.5t131.5 120.5t33.5 95q0 106 -148 106t-276 -55v198q45 20 132 36t160 16q102 0 175.5 -22.5t113.5 -62t58 -86t18 -102.5q0 -37 -12.5 -72.5t-30 -64t-52 -61t-60.5 -54t-75 -53t-77.5 -48t-83.5 -48.5l414 2v-191h-715z" />
<glyph unicode="&#xb3;" horiz-adv-x="919" d="M96 723v192q155 -47 322 -47q203 0 203 93q0 47 -27 67.5t-92 20.5h-266v157h256q58 0 81 20.5t23 59.5q0 80 -180 80q-148 0 -305 -45v190q47 21 138 35.5t185 14.5q180 0 278.5 -60.5t98.5 -179.5q0 -64 -27.5 -108t-68.5 -60q61 -21 96 -75t35 -136 q0 -127 -104.5 -197.5t-305.5 -70.5q-97 0 -196.5 14.5t-143.5 34.5z" />
<glyph unicode="&#xb4;" d="M442 1126l119 410h277l-203 -410h-193z" />
<glyph unicode="&#xb5;" horiz-adv-x="1046" d="M104 -512v1536h230v-702q0 -78 40 -115t122 -37q130 0 235 59v795h230v-1024h-136l-37 82q-155 -107 -331 -107q-66 0 -123 13v-500h-230z" />
<glyph unicode="&#xb6;" horiz-adv-x="1282" d="M57 1055q0 78 17 147t57 131t100.5 106.5t152 70.5t206.5 26h567v-1536h-229v575h-119v-575h-229v575q-140 1 -244 40.5t-163.5 108t-87.5 151t-28 180.5zM307 1055q0 -38 6 -72.5t24.5 -72t47.5 -64.5t79 -44.5t116 -17.5v541q-66 0 -116 -17.5t-79 -44t-47.5 -64 t-24.5 -72t-6 -72.5zM809 784h119v541h-119v-541z" />
<glyph unicode="&#xb7;" horiz-adv-x="450" d="M76 639q0 61 44 105t105 44q62 0 106 -44t44 -105t-44.5 -105.5t-105.5 -44.5t-105 44t-44 106z" />
<glyph unicode="&#xb8;" d="M319 -317q93 -37 168 -37q111 0 111 61q0 46 -38.5 67.5t-127.5 32.5l21 193h110l8 -123q191 -46 191 -190q0 -96 -66.5 -147.5t-177.5 -51.5q-118 0 -199 39v156z" />
<glyph unicode="&#xb9;" horiz-adv-x="659" d="M63 1337v127l340 97h97v-863h-213v645z" />
<glyph unicode="&#xba;" horiz-adv-x="864" d="M68 1153q0 207 85.5 307.5t278.5 100.5t279 -100.5t86 -307.5t-86 -307.5t-279 -100.5t-278.5 100.5t-85.5 307.5zM262 1153q0 -128 40 -181.5t130 -53.5t130 53.5t40 181.5t-40 182t-130 54t-130 -54t-40 -182z" />
<glyph unicode="&#xbb;" horiz-adv-x="980" d="M106 133v207l193 172l-193 172v207l390 -299v-160zM496 133v207l192 172l-192 172v207l389 -299v-160z" />
<glyph unicode="&#xbc;" horiz-adv-x="2021" d="M63 1337v127l340 97h97v-863h-213v645zM279 0l1087 1536h211l-1088 -1536h-210zM1098 188v138l465 536h217v-485h153v-189h-153v-188h-207v188h-475zM1372 375l201 2l6 231z" />
<glyph unicode="&#xbd;" horiz-adv-x="2048" d="M63 1337v127l340 97h97v-863h-213v645zM279 0l1087 1536h211l-1088 -1536h-210zM1255 0v147q196 124 294 198.5t131.5 120.5t33.5 95q0 107 -147 107q-146 0 -277 -56v199q45 20 132 35.5t161 15.5q102 0 175.5 -22t113.5 -61.5t58 -86t18 -102.5q0 -37 -12.5 -72.5 t-30 -64t-52 -61t-61 -54.5t-75.5 -53t-77.5 -48.5t-83.5 -48.5l414 2v-190h-715z" />
<glyph unicode="&#xbe;" horiz-adv-x="2248" d="M96 723v192q155 -47 322 -47q203 0 203 93q0 47 -27 67.5t-92 20.5h-266v157h256q58 0 81 20.5t23 59.5q0 80 -180 80q-148 0 -305 -45v190q47 21 138 35.5t185 14.5q180 0 278.5 -60.5t98.5 -179.5q0 -64 -27.5 -108t-68.5 -60q61 -21 96 -75t35 -136 q0 -127 -104.5 -197.5t-305.5 -70.5q-97 0 -196.5 14.5t-143.5 34.5zM506 0l1087 1536h211l-1087 -1536h-211zM1325 188v138l465 536h217v-485h154v-189h-154v-188h-207v188h-475zM1599 375l201 2l6 231z" />
<glyph unicode="&#xbf;" horiz-adv-x="972" d="M63 -109q0 56 11 104.5t28.5 84t47.5 67t57.5 52.5t71 42.5t75.5 34.5t82 31q31 11 53.5 25t36.5 35t21.5 37t11 49t4 52.5t0.5 64.5v8v7.5v8.5h144q28 -98 28 -168q0 -55 -12.5 -97.5t-52 -84.5t-105.5 -70q-12 -5 -34 -14q-38 -15 -56.5 -23t-49 -23.5t-45 -27.5 t-34.5 -32t-29 -41t-15.5 -50.5t-6.5 -64.5q0 -73 25 -118t93.5 -72t186.5 -27q87 0 179.5 15.5t146.5 37.5v-219q-52 -21 -148.5 -36.5t-193.5 -15.5q-106 0 -189.5 15.5t-139.5 45t-94.5 67t-59.5 88t-29.5 101t-8.5 111.5zM457 899q0 62 44 106t105 44q62 0 106 -44.5 t44 -105.5t-44 -105t-106 -44t-105.5 44t-43.5 105z" />
<glyph unicode="&#xc0;" horiz-adv-x="1310" d="M51 0l488 1554h233l488 -1554h-250l-109 375h-491l-109 -375h-250zM356 1853h277l119 -225h-193zM459 563h393l-197 680z" />
<glyph unicode="&#xc1;" horiz-adv-x="1310" d="M51 0l488 1554h233l488 -1554h-250l-109 375h-491l-109 -375h-250zM459 563h393l-197 680zM559 1628l119 225h276l-202 -225h-193z" />
<glyph unicode="&#xc2;" horiz-adv-x="1310" d="M51 0l488 1554h233l488 -1554h-250l-109 375h-491l-109 -375h-250zM279 1628l260 225h233l260 -225h-201l-176 103l-176 -103h-200zM459 563h393l-197 680z" />
<glyph unicode="&#xc3;" horiz-adv-x="1310" d="M51 0l488 1554h233l488 -1554h-250l-109 375h-491l-109 -375h-250zM250 1628q0 262 244 262q50 0 100 -20t82.5 -44.5t73 -44.5t73.5 -20q92 0 92 92h146q0 -262 -244 -262q-51 0 -100.5 20t-82.5 44.5t-73.5 44.5t-73.5 20q-92 0 -92 -92h-145zM459 563h393l-197 680z " />
<glyph unicode="&#xc4;" horiz-adv-x="1310" d="M51 0l488 1554h233l488 -1554h-250l-109 375h-491l-109 -375h-250zM289 1741q0 61 43.5 105t105.5 44t106 -44t44 -105t-44 -105.5t-106 -44.5q-61 0 -105 44t-44 106zM459 563h393l-197 680zM723 1741q0 61 43.5 105t105.5 44t106 -44t44 -105t-44 -105.5t-106 -44.5 q-61 0 -105 44t-44 106z" />
<glyph unicode="&#xc5;" horiz-adv-x="1310" d="M51 0l488 1554h233l488 -1554h-250l-109 375h-491l-109 -375h-250zM451 1741q0 168 204 168q205 0 205 -168t-205 -168q-204 0 -204 168zM459 563h393l-197 680zM586 1741q0 -35 69 -35q70 0 70 35t-70 35q-69 0 -69 -35z" />
<glyph unicode="&#xc6;" horiz-adv-x="1933" d="M31 0q372 768 747 1536h1098v-211h-786l65 -424h655v-211h-622l74 -479h614v-211h-834l-53 375h-524l-170 -375h-264zM549 563h414l-99 694z" />
<glyph unicode="&#xc7;" horiz-adv-x="1202" d="M104 768q0 193 35.5 337.5t110.5 247.5t196.5 155.5t290.5 52.5q203 0 361 -66v-219q-93 37 -169.5 53.5t-176.5 16.5q-216 0 -314 -144t-98 -434t98 -434t314 -144q100 0 176.5 16.5t169.5 53.5v-219q-158 -66 -361 -66l6 -98q191 -46 191 -190q0 -96 -66.5 -147.5 t-177.5 -51.5q-117 0 -198 39v156q92 -37 167 -37q111 0 111 61q0 46 -38.5 67.5t-127.5 32.5l19 177q-271 33 -395 231t-124 553z" />
<glyph unicode="&#xc8;" horiz-adv-x="1157" d="M125 0v1536h934v-211h-705v-424h639v-211h-639v-479h705v-211h-934zM309 1853h277l119 -225h-193z" />
<glyph unicode="&#xc9;" horiz-adv-x="1157" d="M125 0v1536h934v-211h-705v-424h639v-211h-639v-479h705v-211h-934zM512 1628l119 225h276l-202 -225h-193z" />
<glyph unicode="&#xca;" horiz-adv-x="1157" d="M125 0v1536h934v-211h-705v-424h639v-211h-639v-479h705v-211h-934zM231 1628l261 225h233l260 -225h-201l-176 103l-176 -103h-201z" />
<glyph unicode="&#xcb;" horiz-adv-x="1157" d="M125 0v1536h934v-211h-705v-424h639v-211h-639v-479h705v-211h-934zM242 1741q0 61 44 105t105 44q62 0 106 -44t44 -105t-44.5 -105.5t-105.5 -44.5t-105 44t-44 106zM676 1741q0 61 44 105t105 44q62 0 106 -44t44 -105t-44.5 -105.5t-105.5 -44.5t-105 44t-44 106z " />
<glyph unicode="&#xcc;" horiz-adv-x="544" d="M-27 1853h277l119 -225h-193zM158 0v1536h229v-1536h-229z" />
<glyph unicode="&#xcd;" horiz-adv-x="544" d="M158 0v1536h229v-1536h-229zM176 1628l119 225h276l-202 -225h-193z" />
<glyph unicode="&#xce;" horiz-adv-x="544" d="M-104 1628l260 225h233l260 -225h-200l-177 103l-176 -103h-200zM158 0v1536h229v-1536h-229z" />
<glyph unicode="&#xcf;" horiz-adv-x="544" d="M-74 1741q0 61 44 105t106 44t105.5 -44t43.5 -105q0 -62 -44 -106t-105 -44q-62 0 -106 44.5t-44 105.5zM158 0v1536h229v-1536h-229zM319 1741q0 61 44 105t106 44q61 0 105 -44t44 -105q0 -62 -44 -106t-105 -44t-105.5 44.5t-44.5 105.5z" />
<glyph unicode="&#xd0;" horiz-adv-x="1423" d="M39 686v195h178v655h457q149 0 263 -38.5t187 -105.5t118.5 -166t64 -210t18.5 -248t-18.5 -248t-64 -210t-118.5 -166t-187 -105.5t-263 -38.5h-457v686h-178zM446 211h234q113 0 192.5 39t125.5 115t66.5 174.5t20.5 228.5t-20.5 228.5t-66.5 174.5t-125.5 115 t-192.5 39h-234v-444h324v-195h-324v-475z" />
<glyph unicode="&#xd1;" horiz-adv-x="1347" d="M125 0v1536h209l667 -1092l-6 1092h228v-1536h-209l-668 1092l6 -1092h-227zM268 1628q0 262 244 262q50 0 100 -20t83 -44.5t73 -44.5t74 -20q92 0 92 92h145q0 -262 -243 -262q-50 0 -100 20t-83 44.5t-73 44.5t-74 20q-92 0 -92 -92h-146z" />
<glyph unicode="&#xd2;" horiz-adv-x="1392" d="M104 768q0 99 6.5 181t24.5 165.5t46.5 148.5t74.5 122t106.5 95t145 59.5t188.5 21.5t188.5 -21.5t145 -59.5t106.5 -95t74.5 -122t46.5 -148.5t24.5 -165.5t6.5 -181t-6.5 -181t-24.5 -165.5t-46.5 -148.5t-74.5 -122t-106.5 -95t-145 -59.5t-188.5 -21.5t-188.5 21.5 t-145 59.5t-106.5 95t-74.5 122t-46.5 148.5t-24.5 165.5t-6.5 181zM340 768q0 -116 9 -201.5t32.5 -161t63.5 -122t102.5 -73t148.5 -26.5t149 26.5t102.5 73.5t63.5 121.5t33 160.5t9 202t-9 202t-33 160.5t-63.5 121.5t-102.5 73.5t-149 26.5t-148.5 -26.5t-102.5 -73 t-63.5 -122t-32.5 -161t-9 -201.5zM397 1853h277l119 -225h-193z" />
<glyph unicode="&#xd3;" horiz-adv-x="1392" d="M104 768q0 99 6.5 181t24.5 165.5t46.5 148.5t74.5 122t106.5 95t145 59.5t188.5 21.5t188.5 -21.5t145 -59.5t106.5 -95t74.5 -122t46.5 -148.5t24.5 -165.5t6.5 -181t-6.5 -181t-24.5 -165.5t-46.5 -148.5t-74.5 -122t-106.5 -95t-145 -59.5t-188.5 -21.5t-188.5 21.5 t-145 59.5t-106.5 95t-74.5 122t-46.5 148.5t-24.5 165.5t-6.5 181zM340 768q0 -116 9 -201.5t32.5 -161t63.5 -122t102.5 -73t148.5 -26.5t149 26.5t102.5 73.5t63.5 121.5t33 160.5t9 202t-9 202t-33 160.5t-63.5 121.5t-102.5 73.5t-149 26.5t-148.5 -26.5t-102.5 -73 t-63.5 -122t-32.5 -161t-9 -201.5zM600 1628l119 225h276l-202 -225h-193z" />
<glyph unicode="&#xd4;" horiz-adv-x="1392" d="M104 768q0 99 6.5 181t24.5 165.5t46.5 148.5t74.5 122t106.5 95t145 59.5t188.5 21.5t188.5 -21.5t145 -59.5t106.5 -95t74.5 -122t46.5 -148.5t24.5 -165.5t6.5 -181t-6.5 -181t-24.5 -165.5t-46.5 -148.5t-74.5 -122t-106.5 -95t-145 -59.5t-188.5 -21.5t-188.5 21.5 t-145 59.5t-106.5 95t-74.5 122t-46.5 148.5t-24.5 165.5t-6.5 181zM319 1628l261 225h233l260 -225h-201l-176 103l-176 -103h-201zM340 768q0 -116 9 -201.5t32.5 -161t63.5 -122t102.5 -73t148.5 -26.5t149 26.5t102.5 73.5t63.5 121.5t33 160.5t9 202t-9 202t-33 160.5 t-63.5 121.5t-102.5 73.5t-149 26.5t-148.5 -26.5t-102.5 -73t-63.5 -122t-32.5 -161t-9 -201.5z" />
<glyph unicode="&#xd5;" horiz-adv-x="1392" d="M104 768q0 99 6.5 181t24.5 165.5t46.5 148.5t74.5 122t106.5 95t145 59.5t188.5 21.5t188.5 -21.5t145 -59.5t106.5 -95t74.5 -122t46.5 -148.5t24.5 -165.5t6.5 -181t-6.5 -181t-24.5 -165.5t-46.5 -148.5t-74.5 -122t-106.5 -95t-145 -59.5t-188.5 -21.5t-188.5 21.5 t-145 59.5t-106.5 95t-74.5 122t-46.5 148.5t-24.5 165.5t-6.5 181zM291 1628q0 262 244 262q51 0 100.5 -20t82 -44.5t72.5 -44.5t74 -20q92 0 92 92h146q0 -262 -244 -262q-50 0 -100 20t-83 44.5t-73 44.5t-74 20q-92 0 -92 -92h-145zM340 768q0 -116 9 -201.5t32.5 -161 t63.5 -122t102.5 -73t148.5 -26.5t149 26.5t102.5 73.5t63.5 121.5t33 160.5t9 202t-9 202t-33 160.5t-63.5 121.5t-102.5 73.5t-149 26.5t-148.5 -26.5t-102.5 -73t-63.5 -122t-32.5 -161t-9 -201.5z" />
<glyph unicode="&#xd6;" horiz-adv-x="1392" d="M104 768q0 99 6.5 181t24.5 165.5t46.5 148.5t74.5 122t106.5 95t145 59.5t188.5 21.5t188.5 -21.5t145 -59.5t106.5 -95t74.5 -122t46.5 -148.5t24.5 -165.5t6.5 -181t-6.5 -181t-24.5 -165.5t-46.5 -148.5t-74.5 -122t-106.5 -95t-145 -59.5t-188.5 -21.5t-188.5 21.5 t-145 59.5t-106.5 95t-74.5 122t-46.5 148.5t-24.5 165.5t-6.5 181zM330 1741q0 61 44 105t105 44q62 0 106 -44t44 -105t-44.5 -105.5t-105.5 -44.5t-105 44t-44 106zM340 768q0 -116 9 -201.5t32.5 -161t63.5 -122t102.5 -73t148.5 -26.5t149 26.5t102.5 73.5t63.5 121.5 t33 160.5t9 202t-9 202t-33 160.5t-63.5 121.5t-102.5 73.5t-149 26.5t-148.5 -26.5t-102.5 -73t-63.5 -122t-32.5 -161t-9 -201.5zM764 1741q0 61 44 105t105 44q62 0 106 -44t44 -105t-44.5 -105.5t-105.5 -44.5t-105 44t-44 106z" />
<glyph unicode="&#xd7;" horiz-adv-x="1228" d="M152 387l309 309l-309 310l153 153l309 -309l310 309l153 -153l-309 -310l309 -309l-153 -154l-310 310l-309 -310z" />
<glyph unicode="&#xd8;" horiz-adv-x="1392" d="M104 768q0 99 6.5 181t24.5 165.5t46.5 148.5t74.5 122t106.5 95t145 59.5t188.5 21.5q210 0 344 -91l41 66h168l-100 -166q139 -185 139 -602q0 -99 -6.5 -181t-24.5 -165.5t-46.5 -148.5t-74.5 -122t-106.5 -95t-145 -59.5t-188.5 -21.5q-213 0 -346 88l-39 -63h-168 l101 164q-140 185 -140 604zM340 768q0 -250 45 -373l537 881q-82 76 -226 76q-86 0 -148.5 -26.5t-102.5 -73t-63.5 -122t-32.5 -161t-9 -201.5zM469 258q80 -74 227 -74q86 0 149 26.5t102.5 73.5t63.5 121.5t33 160.5t9 202q0 240 -45 371z" />
<glyph unicode="&#xd9;" horiz-adv-x="1343" d="M115 483v1053h229v-1032q0 -320 328 -320q327 0 327 320v1032h230v-1053q0 -89 -20 -163.5t-53.5 -125.5t-80.5 -91t-96 -63.5t-105.5 -38.5t-104.5 -20.5t-97 -5.5t-97 5.5t-104.5 20.5t-105.5 38.5t-96 63.5t-80.5 91t-53.5 125.5t-20 163.5zM373 1853h276l119 -225 h-193z" />
<glyph unicode="&#xda;" horiz-adv-x="1343" d="M115 483v1053h229v-1032q0 -320 328 -320q327 0 327 320v1032h230v-1053q0 -89 -20 -163.5t-53.5 -125.5t-80.5 -91t-96 -63.5t-105.5 -38.5t-104.5 -20.5t-97 -5.5t-97 5.5t-104.5 20.5t-105.5 38.5t-96 63.5t-80.5 91t-53.5 125.5t-20 163.5zM575 1628l119 225h277 l-203 -225h-193z" />
<glyph unicode="&#xdb;" horiz-adv-x="1343" d="M115 483v1053h229v-1032q0 -320 328 -320q327 0 327 320v1032h230v-1053q0 -89 -20 -163.5t-53.5 -125.5t-80.5 -91t-96 -63.5t-105.5 -38.5t-104.5 -20.5t-97 -5.5t-97 5.5t-104.5 20.5t-105.5 38.5t-96 63.5t-80.5 91t-53.5 125.5t-20 163.5zM295 1628l260 225h233 l261 -225h-201l-176 103l-176 -103h-201z" />
<glyph unicode="&#xdc;" horiz-adv-x="1343" d="M115 483v1053h229v-1032q0 -320 328 -320q327 0 327 320v1032h230v-1053q0 -89 -20 -163.5t-53.5 -125.5t-80.5 -91t-96 -63.5t-105.5 -38.5t-104.5 -20.5t-97 -5.5t-97 5.5t-104.5 20.5t-105.5 38.5t-96 63.5t-80.5 91t-53.5 125.5t-20 163.5zM305 1741q0 61 44 105 t106 44q61 0 105 -44t44 -105q0 -62 -44 -106t-105 -44t-105.5 44.5t-44.5 105.5zM739 1741q0 61 44 105t106 44q61 0 105 -44t44 -105q0 -62 -44 -106t-105 -44t-105.5 44.5t-44.5 105.5z" />
<glyph unicode="&#xdd;" horiz-adv-x="1372" d="M47 1536h260l379 -717l379 717h260l-522 -920v-616h-234v616zM590 1628l119 225h276l-203 -225h-192z" />
<glyph unicode="&#xde;" horiz-adv-x="1208" d="M125 0v1536h229v-287h264q115 0 206.5 -26t152 -70.5t100.5 -106.5t57 -131t17 -147t-17 -146.5t-57 -130.5t-100.5 -106t-152 -70t-206.5 -26h-264v-289h-229zM354 498h275q81 0 138 25t84.5 68t38.5 85.5t11 91.5t-11 91.5t-38.5 85.5t-84.5 68t-138 25h-275v-540z" />
<glyph unicode="&#xdf;" horiz-adv-x="1153" d="M127 0v1227q0 334 414 334q203 0 304 -86.5t101 -249.5q0 -61 -20 -112t-49.5 -83t-64.5 -63t-64.5 -55t-49.5 -57t-20 -71q0 -55 30 -84.5t115 -58.5q164 -56 227.5 -127t63.5 -205q0 -152 -100 -243t-279 -91q-170 0 -278 60v201q141 -66 256 -66q176 0 176 139 q0 65 -43 100.5t-131 63.5q-144 46 -202 109.5t-58 179.5q0 53 15 96.5t38.5 73t52 55.5t57 49t52 48t38.5 59.5t15 75.5q0 72 -50.5 107.5t-131.5 35.5q-83 0 -134 -38t-51 -110v-1214h-229z" />
<glyph unicode="&#xe0;" horiz-adv-x="1015" d="M76 303q0 305 375 334l229 18v52q0 79 -44.5 112t-156.5 33q-166 0 -319 -61v198q61 27 153.5 43.5t182.5 16.5q99 0 172 -17.5t119 -48t73.5 -78t38 -100t10.5 -121.5v-684h-135l-37 82q-61 -51 -142.5 -79t-166.5 -28q-95 0 -165.5 27.5t-110 75.5t-58 104t-18.5 121z M203 1536h276l119 -410h-192zM303 315q0 -151 158 -151q116 0 219 67v267l-215 -25q-81 -10 -121.5 -46t-40.5 -112z" />
<glyph unicode="&#xe1;" horiz-adv-x="1015" d="M76 303q0 305 375 334l229 18v52q0 79 -44.5 112t-156.5 33q-166 0 -319 -61v198q61 27 153.5 43.5t182.5 16.5q99 0 172 -17.5t119 -48t73.5 -78t38 -100t10.5 -121.5v-684h-135l-37 82q-61 -51 -142.5 -79t-166.5 -28q-95 0 -165.5 27.5t-110 75.5t-58 104t-18.5 121z M303 315q0 -151 158 -151q116 0 219 67v267l-215 -25q-81 -10 -121.5 -46t-40.5 -112zM406 1126l118 410h277l-203 -410h-192z" />
<glyph unicode="&#xe2;" horiz-adv-x="1015" d="M76 303q0 305 375 334l229 18v52q0 79 -44.5 112t-156.5 33q-166 0 -319 -61v198q61 27 153.5 43.5t182.5 16.5q99 0 172 -17.5t119 -48t73.5 -78t38 -100t10.5 -121.5v-684h-135l-37 82q-61 -51 -142.5 -79t-166.5 -28q-95 0 -165.5 27.5t-110 75.5t-58 104t-18.5 121z M117 1126l268 410h233l269 -410h-195l-190 232l-191 -232h-194zM303 315q0 -151 158 -151q116 0 219 67v267l-215 -25q-81 -10 -121.5 -46t-40.5 -112z" />
<glyph unicode="&#xe3;" horiz-adv-x="1015" d="M76 303q0 305 375 334l229 18v52q0 79 -44.5 112t-156.5 33q-166 0 -319 -61v198q61 27 153.5 43.5t182.5 16.5q99 0 172 -17.5t119 -48t73.5 -78t38 -100t10.5 -121.5v-684h-135l-37 82q-61 -51 -142.5 -79t-166.5 -28q-95 0 -165.5 27.5t-110 75.5t-58 104t-18.5 121z M86 1202q0 287 250 287q50 0 92 -15.5t71 -38t54.5 -45t54 -38t58.5 -15.5q59 0 78.5 31t19.5 80h154q0 -287 -250 -287q-50 0 -92 15.5t-71 38t-54.5 45t-54 38t-58.5 15.5q-59 0 -78.5 -31t-19.5 -80h-154zM303 315q0 -151 158 -151q116 0 219 67v267l-215 -25 q-81 -10 -121.5 -46t-40.5 -112z" />
<glyph unicode="&#xe4;" horiz-adv-x="1015" d="M76 303q0 305 375 334l229 18v52q0 79 -44.5 112t-156.5 33q-166 0 -319 -61v198q61 27 153.5 43.5t182.5 16.5q99 0 172 -17.5t119 -48t73.5 -78t38 -100t10.5 -121.5v-684h-135l-37 82q-61 -51 -142.5 -79t-166.5 -28q-95 0 -165.5 27.5t-110 75.5t-58 104t-18.5 121z M135 1327q0 61 44.5 105.5t105.5 44.5t105 -44t44 -106q0 -61 -44 -105t-105 -44q-62 0 -106 44t-44 105zM303 315q0 -151 158 -151q116 0 219 67v267l-215 -25q-81 -10 -121.5 -46t-40.5 -112zM569 1327q0 61 44.5 105.5t105.5 44.5t105 -44t44 -106q0 -61 -44 -105 t-105 -44q-62 0 -106 44t-44 105z" />
<glyph unicode="&#xe5;" horiz-adv-x="1015" d="M76 303q0 305 375 334l229 18v52q0 79 -44.5 112t-156.5 33q-166 0 -319 -61v198q61 27 153.5 43.5t182.5 16.5q99 0 172 -17.5t119 -48t73.5 -78t38 -100t10.5 -121.5v-684h-135l-37 82q-61 -51 -142.5 -79t-166.5 -28q-95 0 -165.5 27.5t-110 75.5t-58 104t-18.5 121z M287 1331q0 104 58.5 157.5t156.5 53.5q99 0 157 -53.5t58 -157.5t-58 -157.5t-157 -53.5q-98 0 -156.5 53.5t-58.5 157.5zM303 315q0 -151 158 -151q116 0 219 67v267l-215 -25q-81 -10 -121.5 -46t-40.5 -112zM424 1331q0 -76 78 -76q80 0 80 76t-80 76q-78 0 -78 -76z " />
<glyph unicode="&#xe6;" horiz-adv-x="1640" d="M76 291q0 158 95.5 230.5t285.5 72.5h223v113q0 79 -43 112t-158 33q-166 0 -319 -61v198q61 27 153.5 43.5t182.5 16.5q240 0 331 -101q97 97 308 101q105 0 181.5 -28t121 -73t71 -115.5t35 -141t8.5 -163.5q0 -34 -4 -100h-637q3 -126 62 -190t207 -64q182 0 325 62 v-197q-153 -64 -360 -64q-236 0 -348 127q-152 -127 -369 -127q-95 0 -165.5 26.5t-110 72t-58 100t-18.5 117.5zM303 299q0 -65 34 -100t124 -35q140 0 250 94q-29 84 -31 176h-205q-93 0 -132.5 -34.5t-39.5 -100.5zM911 588h410q0 51 -2 82t-12 69.5t-29.5 59.5t-55 36 t-87.5 15q-118 0 -167.5 -67.5t-56.5 -194.5z" />
<glyph unicode="&#xe7;" horiz-adv-x="921" d="M84 512q0 99 14.5 178.5t48 148t87.5 114t135 71t188 25.5q164 0 283 -52v-198q-120 47 -269 47q-73 0 -124 -23.5t-79 -69.5t-40.5 -104.5t-12.5 -136.5t12.5 -136.5t40.5 -104.5t79 -69.5t124 -23.5q149 0 269 47v-198q-113 -49 -267 -52l7 -98q190 -46 190 -190 q0 -96 -66.5 -147.5t-177.5 -51.5q-117 0 -198 39v156q92 -37 168 -37q110 0 110 61q0 46 -38.5 67.5t-127.5 32.5l19 175q-104 14 -178 57t-116.5 114t-61.5 158.5t-19 200.5z" />
<glyph unicode="&#xe8;" horiz-adv-x="1044" d="M84 512q0 127 24.5 223.5t77.5 168t141.5 108.5t211.5 37q105 0 181.5 -28t121 -73t71 -115.5t35 -141t8.5 -163.5q0 -34 -4 -100h-637q3 -126 62 -190t207 -64q182 0 325 62v-197q-153 -64 -360 -64q-247 0 -356 138t-109 399zM240 1536h276l119 -410h-193zM315 588h410 q0 51 -2 82t-12 69.5t-29.5 59.5t-55 36t-87.5 15q-118 0 -167.5 -67.5t-56.5 -194.5z" />
<glyph unicode="&#xe9;" horiz-adv-x="1044" d="M84 512q0 127 24.5 223.5t77.5 168t141.5 108.5t211.5 37q105 0 181.5 -28t121 -73t71 -115.5t35 -141t8.5 -163.5q0 -34 -4 -100h-637q3 -126 62 -190t207 -64q182 0 325 62v-197q-153 -64 -360 -64q-247 0 -356 138t-109 399zM315 588h410q0 51 -2 82t-12 69.5 t-29.5 59.5t-55 36t-87.5 15q-118 0 -167.5 -67.5t-56.5 -194.5zM442 1126l119 410h277l-203 -410h-193z" />
<glyph unicode="&#xea;" horiz-adv-x="1044" d="M84 512q0 127 24.5 223.5t77.5 168t141.5 108.5t211.5 37q105 0 181.5 -28t121 -73t71 -115.5t35 -141t8.5 -163.5q0 -34 -4 -100h-637q3 -126 62 -190t207 -64q182 0 325 62v-197q-153 -64 -360 -64q-247 0 -356 138t-109 399zM154 1126l268 410h233l269 -410h-195 l-190 232l-191 -232h-194zM315 588h410q0 51 -2 82t-12 69.5t-29.5 59.5t-55 36t-87.5 15q-118 0 -167.5 -67.5t-56.5 -194.5z" />
<glyph unicode="&#xeb;" horiz-adv-x="1044" d="M84 512q0 127 24.5 223.5t77.5 168t141.5 108.5t211.5 37q105 0 181.5 -28t121 -73t71 -115.5t35 -141t8.5 -163.5q0 -34 -4 -100h-637q3 -126 62 -190t207 -64q182 0 325 62v-197q-153 -64 -360 -64q-247 0 -356 138t-109 399zM172 1327q0 61 44 105.5t106 44.5 q61 0 105 -44t44 -106q0 -61 -43.5 -105t-105.5 -44t-106 44t-44 105zM315 588h410q0 51 -2 82t-12 69.5t-29.5 59.5t-55 36t-87.5 15q-118 0 -167.5 -67.5t-56.5 -194.5zM606 1327q0 61 44 105.5t106 44.5q61 0 105 -44t44 -106q0 -61 -43.5 -105t-105.5 -44t-106 44 t-44 105z" />
<glyph unicode="&#xec;" horiz-adv-x="526" d="M-51 1536h276l119 -410h-192zM133 252v772h229v-770q0 -43 19 -60.5t68 -17.5v-186q-21 -4 -46 -4q-138 0 -204 66.5t-66 199.5z" />
<glyph unicode="&#xed;" horiz-adv-x="526" d="M133 252v772h229v-770q0 -43 19 -60.5t68 -17.5v-186q-21 -4 -46 -4q-138 0 -204 66.5t-66 199.5zM152 1126l118 410h277l-203 -410h-192z" />
<glyph unicode="&#xee;" horiz-adv-x="526" d="M-137 1126l268 410h234l268 -410h-195l-190 232l-191 -232h-194zM133 252v772h229v-770q0 -43 19 -60.5t68 -17.5v-186q-21 -4 -46 -4q-138 0 -204 66.5t-66 199.5z" />
<glyph unicode="&#xef;" horiz-adv-x="526" d="M-98 1327q0 62 44 106t105 44t105.5 -44.5t44.5 -105.5t-44 -105t-106 -44q-61 0 -105 44t-44 105zM133 252v772h229v-770q0 -43 19 -60.5t68 -17.5v-186q-21 -4 -46 -4q-138 0 -204 66.5t-66 199.5zM295 1327q0 62 44 106t105 44q62 0 106 -44.5t44 -105.5t-44 -105 t-106 -44t-105.5 44t-43.5 105z" />
<glyph unicode="&#xf0;" d="M84 512q0 265 100.5 401t333.5 136q116 0 172 -37q-53 115 -147 219l-301 -154v156l200 102q-127 112 -297 201h336q103 -68 146 -106l233 118v-155l-129 -66q254 -297 262 -815q0 -100 -12 -177.5t-43 -147t-81.5 -115t-130.5 -71.5t-187 -26t-187 26t-131 71.5t-82 115 t-43 147t-12 177.5zM315 512q0 -72 4.5 -121t18 -94t38 -71.5t65 -42t98.5 -15.5t98 15.5t64.5 42t38 72t18 94t4.5 120.5t-4.5 120.5t-18 94t-38 72t-64.5 42t-98 15.5t-98.5 -15.5t-65 -42t-38 -71.5t-18 -94t-4.5 -121z" />
<glyph unicode="&#xf1;" horiz-adv-x="1073" d="M113 0v1024h135l37 -82q155 107 331 107q187 0 270 -85t83 -241v-723h-230v702q0 78 -39.5 115t-121.5 37q-131 0 -236 -59v-795h-229zM129 1202q0 287 250 287q50 0 92 -15.5t71 -38t54.5 -45t54 -38t58.5 -15.5q59 0 78.5 31t19.5 80h154q0 -287 -250 -287 q-50 0 -92 15.5t-71 38t-54.5 45t-54 38t-58.5 15.5q-59 0 -78.5 -31t-19.5 -80h-154z" />
<glyph unicode="&#xf2;" d="M84 512q0 100 12 177.5t43 147t82 115t131 71.5t187 26t187 -26t130.5 -71.5t81.5 -115t43 -147t12 -177.5t-12 -177.5t-43 -147t-81.5 -115t-130.5 -71.5t-187 -26t-187 26t-131 71.5t-82 115t-43 147t-12 177.5zM240 1536h276l119 -410h-193zM315 512q0 -72 4.5 -121 t18 -94t38 -71.5t65 -42t98.5 -15.5t98 15.5t64.5 42t38 72t18 94t4.5 120.5t-4.5 120.5t-18 94t-38 72t-64.5 42t-98 15.5t-98.5 -15.5t-65 -42t-38 -71.5t-18 -94t-4.5 -121z" />
<glyph unicode="&#xf3;" d="M84 512q0 100 12 177.5t43 147t82 115t131 71.5t187 26t187 -26t130.5 -71.5t81.5 -115t43 -147t12 -177.5t-12 -177.5t-43 -147t-81.5 -115t-130.5 -71.5t-187 -26t-187 26t-131 71.5t-82 115t-43 147t-12 177.5zM315 512q0 -72 4.5 -121t18 -94t38 -71.5t65 -42 t98.5 -15.5t98 15.5t64.5 42t38 72t18 94t4.5 120.5t-4.5 120.5t-18 94t-38 72t-64.5 42t-98 15.5t-98.5 -15.5t-65 -42t-38 -71.5t-18 -94t-4.5 -121zM442 1126l119 410h277l-203 -410h-193z" />
<glyph unicode="&#xf4;" d="M84 512q0 100 12 177.5t43 147t82 115t131 71.5t187 26t187 -26t130.5 -71.5t81.5 -115t43 -147t12 -177.5t-12 -177.5t-43 -147t-81.5 -115t-130.5 -71.5t-187 -26t-187 26t-131 71.5t-82 115t-43 147t-12 177.5zM154 1126l268 410h233l269 -410h-195l-190 232 l-191 -232h-194zM315 512q0 -72 4.5 -121t18 -94t38 -71.5t65 -42t98.5 -15.5t98 15.5t64.5 42t38 72t18 94t4.5 120.5t-4.5 120.5t-18 94t-38 72t-64.5 42t-98 15.5t-98.5 -15.5t-65 -42t-38 -71.5t-18 -94t-4.5 -121z" />
<glyph unicode="&#xf5;" d="M84 512q0 100 12 177.5t43 147t82 115t131 71.5t187 26t187 -26t130.5 -71.5t81.5 -115t43 -147t12 -177.5t-12 -177.5t-43 -147t-81.5 -115t-130.5 -71.5t-187 -26t-187 26t-131 71.5t-82 115t-43 147t-12 177.5zM123 1202q0 287 250 287q50 0 92 -15.5t71 -38t54.5 -45 t53.5 -38t58 -15.5q59 0 79 31t20 80h153q0 -287 -249 -287q-50 0 -92 15.5t-71 38t-54.5 45t-54 38t-58.5 15.5q-59 0 -79 -31t-20 -80h-153zM315 512q0 -72 4.5 -121t18 -94t38 -71.5t65 -42t98.5 -15.5t98 15.5t64.5 42t38 72t18 94t4.5 120.5t-4.5 120.5t-18 94t-38 72 t-64.5 42t-98 15.5t-98.5 -15.5t-65 -42t-38 -71.5t-18 -94t-4.5 -121z" />
<glyph unicode="&#xf6;" d="M84 512q0 100 12 177.5t43 147t82 115t131 71.5t187 26t187 -26t130.5 -71.5t81.5 -115t43 -147t12 -177.5t-12 -177.5t-43 -147t-81.5 -115t-130.5 -71.5t-187 -26t-187 26t-131 71.5t-82 115t-43 147t-12 177.5zM172 1327q0 61 44 105.5t106 44.5q61 0 105 -44t44 -106 q0 -61 -43.5 -105t-105.5 -44t-106 44t-44 105zM315 512q0 -72 4.5 -121t18 -94t38 -71.5t65 -42t98.5 -15.5t98 15.5t64.5 42t38 72t18 94t4.5 120.5t-4.5 120.5t-18 94t-38 72t-64.5 42t-98 15.5t-98.5 -15.5t-65 -42t-38 -71.5t-18 -94t-4.5 -121zM606 1327 q0 61 44 105.5t106 44.5q61 0 105 -44t44 -106q0 -61 -43.5 -105t-105.5 -44t-106 44t-44 105z" />
<glyph unicode="&#xf7;" horiz-adv-x="1228" d="M156 588v219h917v-219h-917zM465 348q0 62 44 106t105 44q62 0 106 -44t44 -106q0 -61 -44 -105t-106 -44t-105.5 43.5t-43.5 105.5zM465 1057q0 61 43.5 105t105.5 44t106 -44t44 -105t-44 -105.5t-106 -44.5q-61 0 -105 44t-44 106z" />
<glyph unicode="&#xf8;" d="M84 512q0 100 12 177.5t43 147t82 115t131 71.5t187 26q159 0 264 -62l26 37h154l-86 -119q96 -128 96 -393q0 -100 -12 -177.5t-43 -147t-81.5 -115t-130.5 -71.5t-187 -26q-160 0 -267 60l-24 -35h-154l86 119q-96 125 -96 393zM315 512q0 -122 15 -186l350 491 q-51 39 -141 39q-58 0 -98.5 -15.5t-65 -42t-38 -71.5t-18 -94t-4.5 -121zM395 207q48 -39 144 -39q58 0 98 15.5t64.5 42t38 72t18 94t4.5 120.5q0 113 -14 184z" />
<glyph unicode="&#xf9;" horiz-adv-x="1073" d="M104 301v723h230v-702q0 -78 40 -115t122 -37q130 0 235 59v795h230v-1024h-136l-37 82q-155 -107 -331 -107q-187 0 -270 85t-83 241zM233 1536h277l119 -410h-193z" />
<glyph unicode="&#xfa;" horiz-adv-x="1073" d="M104 301v723h230v-702q0 -78 40 -115t122 -37q130 0 235 59v795h230v-1024h-136l-37 82q-155 -107 -331 -107q-187 0 -270 85t-83 241zM436 1126l119 410h276l-202 -410h-193z" />
<glyph unicode="&#xfb;" horiz-adv-x="1073" d="M104 301v723h230v-702q0 -78 40 -115t122 -37q130 0 235 59v795h230v-1024h-136l-37 82q-155 -107 -331 -107q-187 0 -270 85t-83 241zM147 1126l269 410h233l269 -410h-195l-191 232l-190 -232h-195z" />
<glyph unicode="&#xfc;" horiz-adv-x="1073" d="M104 301v723h230v-702q0 -78 40 -115t122 -37q130 0 235 59v795h230v-1024h-136l-37 82q-155 -107 -331 -107q-187 0 -270 85t-83 241zM166 1327q0 62 44 106t105 44t105.5 -44.5t44.5 -105.5t-44 -105t-106 -44q-61 0 -105 44t-44 105zM600 1327q0 61 44 105.5t106 44.5 q61 0 105 -44t44 -106q0 -61 -43.5 -105t-105.5 -44t-106 44t-44 105z" />
<glyph unicode="&#xfd;" horiz-adv-x="1024" d="M27 1024h254l231 -731l231 731h254l-585 -1536h-256l254 547zM416 1126l119 410h276l-203 -410h-192z" />
<glyph unicode="&#xfe;" horiz-adv-x="1110" d="M113 -512v2048h229v-567q126 80 274 80q216 0 313 -137.5t97 -399.5t-97 -399.5t-313 -137.5q-148 0 -274 80v-567h-229zM342 229q105 -59 221 -59q59 0 101.5 18t67.5 47.5t39.5 75.5t19 92.5t4.5 108.5t-4.5 108.5t-19 92.5t-39.5 75.5t-67.5 47.5t-101.5 18 q-116 0 -221 -59v-566z" />
<glyph unicode="&#xff;" horiz-adv-x="1024" d="M27 1024h254l231 -731l231 731h254l-585 -1536h-256l254 547zM145 1327q0 61 44.5 105.5t105.5 44.5t105 -44t44 -106q0 -61 -44 -105t-105 -44q-62 0 -106 44t-44 105zM580 1327q0 62 44 106t105 44t105.5 -44.5t44.5 -105.5t-44 -105t-106 -44q-61 0 -105 44t-44 105z " />
<glyph unicode="&#x152;" horiz-adv-x="1937" d="M98 768q0 137 18.5 248t64.5 210t119 166t187 105.5t263 38.5h1089v-211h-674v-424h609v-211h-609v-479h674v-211h-1089q-149 0 -263 38.5t-187 105.5t-119 166t-64.5 210t-18.5 248zM338 768q0 -130 20.5 -228.5t66.5 -174.5t125.5 -115t192.5 -39h193v1114h-193 q-113 0 -192.5 -39t-125.5 -115t-66.5 -174.5t-20.5 -228.5z" />
<glyph unicode="&#x153;" horiz-adv-x="1724" d="M84 512q0 100 12 177.5t43 147t82 115t131 71.5t187 26q237 0 344 -150q108 150 336 150q105 0 181.5 -28t121 -73t71 -115.5t35 -141t8.5 -163.5q0 -34 -4 -100h-637q3 -126 62 -190t207 -64q182 0 325 62v-197q-153 -64 -360 -64q-235 0 -346 150q-105 -150 -344 -150 q-107 0 -187 26t-131 71.5t-82 115t-43 147t-12 177.5zM315 512q0 -72 4.5 -121t18 -94t38 -71.5t65 -42t98.5 -15.5t98 15.5t64.5 42t38 72t18 94t4.5 120.5t-4.5 120.5t-18 94t-38 72t-64.5 42t-98 15.5t-98.5 -15.5t-65 -42t-38 -71.5t-18 -94t-4.5 -121zM995 588h410 q0 51 -2 82t-12 69.5t-29.5 59.5t-55 36t-87.5 15q-118 0 -167.5 -67.5t-56.5 -194.5z" />
<glyph unicode="&#x178;" horiz-adv-x="1372" d="M47 1536h260l379 -717l379 717h260l-522 -920v-616h-234v616zM319 1741q0 61 44 105t106 44q61 0 105 -44t44 -105q0 -62 -44 -106t-105 -44t-105.5 44.5t-44.5 105.5zM754 1741q0 61 44 105t105 44q62 0 106 -44t44 -105t-44.5 -105.5t-105.5 -44.5t-105 44t-44 106z " />
<glyph unicode="&#x2c6;" d="M154 1126l268 410h233l269 -410h-195l-190 232l-191 -232h-194z" />
<glyph unicode="&#x2dc;" d="M123 1202q0 287 250 287q50 0 92 -15.5t71 -38t54.5 -45t53.5 -38t58 -15.5q59 0 79 31t20 80h153q0 -287 -249 -287q-50 0 -92 15.5t-71 38t-54.5 45t-54 38t-58.5 15.5q-59 0 -79 -31t-20 -80h-153z" />
<glyph unicode="&#x2000;" horiz-adv-x="954" />
<glyph unicode="&#x2001;" horiz-adv-x="1909" />
<glyph unicode="&#x2002;" horiz-adv-x="954" />
<glyph unicode="&#x2003;" horiz-adv-x="1909" />
<glyph unicode="&#x2004;" horiz-adv-x="636" />
<glyph unicode="&#x2005;" horiz-adv-x="477" />
<glyph unicode="&#x2006;" horiz-adv-x="318" />
<glyph unicode="&#x2007;" horiz-adv-x="318" />
<glyph unicode="&#x2008;" horiz-adv-x="238" />
<glyph unicode="&#x2009;" horiz-adv-x="381" />
<glyph unicode="&#x200a;" horiz-adv-x="106" />
<glyph unicode="&#x2010;" horiz-adv-x="645" d="M61 535v206h523v-206h-523z" />
<glyph unicode="&#x2011;" horiz-adv-x="645" d="M61 535v206h523v-206h-523z" />
<glyph unicode="&#x2012;" horiz-adv-x="645" d="M61 535v206h523v-206h-523z" />
<glyph unicode="&#x2013;" horiz-adv-x="1024" d="M92 535v206h840v-206h-840z" />
<glyph unicode="&#x2014;" horiz-adv-x="2048" d="M92 535v206h1864v-206h-1864z" />
<glyph unicode="&#x2018;" horiz-adv-x="339" d="M-37 1024l180 512h150l-60 -512h-270z" />
<glyph unicode="&#x2019;" horiz-adv-x="339" d="M47 1024l59 512h271l-180 -512h-150z" />
<glyph unicode="&#x201a;" horiz-adv-x="362" d="M16 -344l60 512h270l-180 -512h-150z" />
<glyph unicode="&#x201c;" horiz-adv-x="688" d="M-37 1024l180 512h150l-60 -512h-270zM311 1024l181 512h149l-59 -512h-271z" />
<glyph unicode="&#x201d;" horiz-adv-x="688" d="M47 1024l59 512h271l-180 -512h-150zM395 1024l60 512h270l-180 -512h-150z" />
<glyph unicode="&#x201e;" horiz-adv-x="710" d="M16 -344l60 512h270l-180 -512h-150zM365 -344l59 512h270l-180 -512h-149z" />
<glyph unicode="&#x2022;" horiz-adv-x="786" d="M113 768q0 117 81.5 199t198.5 82t199 -82t82 -199t-82 -199t-199 -82t-198.5 82t-81.5 199z" />
<glyph unicode="&#x2026;" horiz-adv-x="2048" d="M193 125q0 61 43.5 105t105.5 44t106 -44t44 -105t-44 -105.5t-106 -44.5q-61 0 -105 44t-44 106zM874 125q0 61 44 105t106 44t106 -44t44 -105t-44 -105.5t-106 -44.5t-106 44.5t-44 105.5zM1556 125q0 61 44 105t106 44t105.5 -44t43.5 -105q0 -62 -44 -106t-105 -44 q-62 0 -106 44.5t-44 105.5z" />
<glyph unicode="&#x202f;" horiz-adv-x="381" />
<glyph unicode="&#x2039;" horiz-adv-x="591" d="M96 432v160l389 299v-207l-192 -172l192 -172v-207z" />
<glyph unicode="&#x203a;" horiz-adv-x="591" d="M106 133v207l193 172l-193 172v207l390 -299v-160z" />
<glyph unicode="&#x205f;" horiz-adv-x="477" />
<glyph unicode="&#x20ac;" horiz-adv-x="1210" d="M41 418v170h131q-2 28 -2 53l2 53h-131v170h149q93 441 584 441q211 0 348 -56v-207q-148 56 -336 56q-279 0 -354 -234h508l-59 -170h-478q-2 -28 -2 -53l2 -53h441l-58 -170h-354q74 -236 354 -236q188 0 336 56v-207q-129 -56 -348 -56q-251 0 -394.5 111t-189.5 332 h-149z" />
<glyph unicode="&#x2122;" horiz-adv-x="1177" d="M23 1413v123h419v-123h-141v-389h-137v389h-141zM518 1024v512h154l135 -313l135 313h154v-512h-127l6 301l-119 -268h-98l-119 268l6 -301h-127z" />
<glyph unicode="&#x25fc;" horiz-adv-x="1024" d="M0 0v1024h1024v-1024h-1024z" />
</font>
</defs>
</svg>
